<svg width="28" height="30" viewBox="0 0 33 35" fill="#FFF" xmlns="http://www.w3.org/2000/svg">
<g id="Link &#226;&#134;&#146; SVG" clip-path="url(#clip0_3426_72)">
<path id="Vector" fill-rule="evenodd" clip-rule="evenodd" d="M13.0613 2.05949C10.7523 3.21401 9.30912 4.07991 9.30912 4.07991C9.30912 4.07991 14.2159 6.6776 14.5045 6.6776L15.6591 6.10033L16.8136 5.52307L17.9681 6.10033L19.1226 6.6776L21.4317 5.8117C24.6066 4.36854 24.8953 4.36854 24.8953 4.36854C24.8953 4.36854 23.7407 3.79128 20.8544 2.05949C19.4113 1.19359 17.9681 0.616326 17.6795 0.327694C17.1022 0.0390625 16.8136 0.0390625 16.8136 0.0390625C16.8136 0.0390625 15.0818 0.904958 13.0613 2.05949ZM3.82512 6.6776L1.80469 7.83212V17.6456L4.11375 16.4911L6.4228 15.3366V10.4298L7.57733 11.0071C8.44323 11.5843 9.30912 11.873 10.175 12.4502L11.6182 13.3161L12.1954 13.0275C12.4841 12.7389 13.0613 12.7389 13.35 12.4502L15.0818 11.5843L16.2363 11.0071C16.2363 11.0071 15.0818 10.1412 11.3295 8.40939L6.13417 5.8117C6.13417 5.8117 4.97964 6.10033 3.82512 6.6776ZM25.1839 6.96623C23.4521 7.54349 22.2976 8.12076 22.2976 8.12076L24.0294 9.27528L25.7612 10.4298C25.7612 10.4298 24.8953 11.0071 23.7407 11.2957C22.8749 11.873 20.2772 13.0275 17.9681 13.8934L10.7523 17.357C8.73186 18.2229 7.2887 18.8001 7.00007 19.0888C3.24785 20.8206 2.09332 21.1092 2.09332 21.3978C2.09332 21.3978 1.80469 21.9751 1.80469 24.2841V27.1705L3.82512 28.0364L5.84554 28.9023L8.15459 27.7477L11.0409 26.5932C11.0409 26.5932 10.7523 26.3046 10.4636 26.3046L8.73186 25.4387C8.15459 25.15 7.86596 24.8614 7.57733 24.8614H7.2887C7.2887 24.8614 8.44323 24.2841 9.88639 23.7069C12.7727 22.5523 14.7931 21.3978 19.4113 19.3774C21.4317 18.5115 23.4521 17.6456 25.4725 16.4911C27.2043 15.6252 29.2248 14.7593 30.0906 14.4707L31.5338 13.8934V8.12076L29.5134 7.25486C28.6475 6.10033 27.7816 5.8117 27.7816 5.8117C27.7816 5.8117 26.6271 6.38896 25.1839 6.96623ZM31.2452 17.357C30.9565 17.357 30.3793 17.6456 30.0906 17.9342C29.802 18.2229 28.9361 18.5115 28.3589 18.8001L27.2043 19.3774V24.5728C27.2043 24.5728 25.1839 23.7069 23.4521 22.5524C22.009 21.6865 22.009 21.6865 21.7203 21.6865C21.4317 21.6865 20.5658 22.2637 19.4113 22.841C17.9681 23.4182 17.1022 23.7069 17.1022 23.9955C17.1022 23.9955 19.4113 25.15 22.2976 26.8818L27.493 29.4795L29.802 28.325L32.1111 27.1705V17.357C31.8224 17.0683 31.5338 17.357 31.2452 17.357ZM19.1226 28.6136C18.5454 28.9023 18.2567 28.9023 17.9681 29.1909C16.8136 29.7681 16.8136 29.7681 15.6591 28.9023C14.5045 28.6136 14.2159 28.325 14.2159 28.325L11.9068 29.4795C10.7523 30.0568 9.59775 30.3454 9.59775 30.3454C9.02049 30.3454 9.88639 30.9227 13.35 32.6545L16.8136 34.6749L18.5454 33.809C19.4113 33.2317 21.1431 32.3658 22.5862 31.7886C24.0294 31.2113 24.8953 30.634 24.8953 30.634L22.5862 29.4795L19.9885 28.325L19.1226 28.6136Z" fill="#FFF"/>
</g>
<defs>
<clipPath id="clip0_3426_72">
<rect width="31.7495" height="34.6358" fill="#FFF" transform="translate(0.9375 0.0390625)"/>
</clipPath>
</defs>
</svg>
