<svg width="30" height="30" viewBox="0 0 36 36" fill="#FFF" xmlns="http://www.w3.org/2000/svg">
<g clip-path="url(#clip0_3426_74)">
<path d="M7.94831 17.2818C7.94826 17.0884 7.98643 16.897 8.06061 16.7184C8.13479 16.5399 8.24352 16.3778 8.38055 16.2413C8.51759 16.1049 8.68022 15.9969 8.85911 15.9235C9.03801 15.8502 9.22963 15.8128 9.42298 15.8137L11.8679 15.8217C12.2577 15.8217 12.6315 15.9766 12.9072 16.2522C13.1828 16.5279 13.3377 16.9018 13.3377 17.2916V26.5365C13.6131 26.4549 13.9663 26.3679 14.3533 26.2771C14.622 26.2139 14.8614 26.0618 15.0328 25.8455C15.2041 25.6292 15.2975 25.3612 15.2975 25.0852V13.6176C15.2975 13.2278 15.4523 12.8538 15.728 12.5781C16.0036 12.3024 16.3775 12.1475 16.7673 12.1474H19.2172C19.607 12.1475 19.981 12.3025 20.2566 12.5782C20.5323 12.8539 20.6871 13.2278 20.6871 13.6176V24.2611C20.6871 24.2611 21.3002 24.0128 21.8978 23.7606C22.1197 23.6668 22.3091 23.5096 22.4423 23.3089C22.5755 23.108 22.6466 22.8724 22.6468 22.6314V9.94236C22.6468 9.74935 22.6847 9.55822 22.7586 9.3799C22.8325 9.20158 22.9407 9.03954 23.0771 8.90306C23.2136 8.76657 23.3757 8.6583 23.5539 8.58443C23.7323 8.51055 23.9234 8.47251 24.1163 8.4725H26.5662C26.956 8.4725 27.33 8.62736 27.6056 8.90301C27.8813 9.17865 28.0361 9.55252 28.0363 9.94236V20.3912C30.16 18.8519 32.3125 17.0007 34.0206 14.7746C34.2685 14.4514 34.4325 14.072 34.498 13.6701C34.5635 13.2682 34.5284 12.8563 34.3961 12.4712C33.2404 9.10293 31.0725 6.17389 28.1888 4.08454C25.3052 1.99518 21.8465 0.847511 18.286 0.798444C8.68435 0.669463 0.74914 8.50728 0.750083 18.11C0.740655 21.1487 1.53373 24.1359 3.04911 26.7697C3.2581 27.1301 3.56555 27.4232 3.93534 27.6147C4.30515 27.8063 4.72194 27.8883 5.13676 27.8512C5.71305 27.8 6.28859 27.7402 6.86315 27.6722C7.16171 27.6383 7.43734 27.4957 7.63757 27.2716C7.83777 27.0475 7.94858 26.7577 7.94888 26.4573L7.94831 17.2818Z" fill="#FFF"/>
<path d="M7.89855 32.11C10.4808 33.9885 13.5323 35.1161 16.7156 35.3679C19.8988 35.6197 23.0898 34.9862 25.9352 33.5371C28.7807 32.088 31.1699 29.8802 32.8384 27.1575C34.507 24.4348 35.3898 21.3038 35.3894 18.1106C35.3894 17.7119 35.3709 17.3177 35.3442 16.9258C29.0198 26.3577 17.3428 30.7673 7.89855 32.11Z" fill="#FFF"/>
</g>
<defs>
<clipPath id="clip0_3426_74">
<rect width="34.6358" height="34.6358" fill="#FFF" transform="translate(0.75 0.792969)"/>
</clipPath>
</defs>
</svg>
