<svg width="30" height="27" viewBox="0 0 36 33" fill="#FFF" xmlns="http://www.w3.org/2000/svg">
<g id="Link &#226;&#134;&#146; SVG" clip-path="url(#clip0_3426_68)">
<path id="Vector" d="M15.1681 17.5831C16.8355 18.5454 17.6691 19.0266 18.5848 19.0275C19.5003 19.0282 20.3349 18.5485 22.0039 17.5891L32.6432 11.4733C33.1235 11.1972 33.4196 10.6855 33.4196 10.1315C33.4196 9.57745 33.1235 9.06571 32.6432 8.78963L22 2.6716C20.3329 1.71321 19.4992 1.23402 18.5845 1.23438C17.6698 1.23473 16.8365 1.71458 15.1701 2.67427L6.02049 7.94317C5.95267 7.98224 5.91878 8.0018 5.88716 8.02028C2.76175 9.84991 0.830767 13.1902 0.804949 16.8116C0.804687 16.8483 0.804688 16.8874 0.804688 16.9656C0.804688 17.0438 0.804687 17.0829 0.804947 17.1195C0.830711 20.7369 2.75738 24.074 5.87723 25.905C5.90875 25.9236 5.94265 25.9431 6.01032 25.9822L11.7416 29.2912C15.0812 31.2194 16.751 32.1834 18.5846 32.1842C20.4183 32.1847 22.0888 31.2219 25.4297 29.2958L31.4798 25.8081C33.1526 24.8438 33.9891 24.3617 34.4484 23.5668C34.9076 22.7717 34.9076 21.8064 34.9076 19.8755V16.1453C34.9076 15.6096 34.6176 15.116 34.1495 14.8553C33.6967 14.6031 33.1447 14.6068 32.6953 14.8652L20.2894 21.9965C19.4572 22.4749 19.041 22.7142 18.5842 22.7143C18.1276 22.7144 17.7112 22.4755 16.8785 21.9975L8.48199 17.1776C8.0614 16.9362 7.85108 16.8155 7.68216 16.7937C7.29707 16.744 6.92678 16.9597 6.78009 17.3192C6.71576 17.4769 6.71705 17.7194 6.71966 18.2044C6.72158 18.5615 6.72253 18.74 6.7559 18.9041C6.83066 19.2719 7.02408 19.6047 7.30655 19.8518C7.43268 19.9622 7.58726 20.0514 7.89653 20.2299L16.8738 25.4111C17.7086 25.893 18.126 26.1339 18.5844 26.134C19.0427 26.1342 19.4602 25.8934 20.2954 25.4121L31.2989 19.0693C31.584 18.9048 31.7268 18.8227 31.8337 18.8844C31.9405 18.9462 31.9405 19.1109 31.9405 19.4401V21.132C31.9405 21.6148 31.9405 21.8561 31.8258 22.0548C31.7109 22.2535 31.5018 22.374 31.0836 22.6152L22.0078 27.8468C20.3369 28.8099 19.5016 29.2915 18.5845 29.2911C17.6675 29.2906 16.8325 28.8083 15.1626 27.8436L6.67145 22.9387C6.64447 22.9231 6.63099 22.9153 6.61842 22.908C4.83804 21.8676 3.73948 19.9644 3.72918 17.9022C3.7291 17.8877 3.7291 17.8722 3.7291 17.841V16.2879C3.7291 15.1496 4.33537 14.0974 5.32023 13.5265C6.19048 13.0221 7.26392 13.0211 8.1351 13.5239L15.1681 17.5831Z" fill="#FFF"/>
</g>
<defs>
<clipPath id="clip0_3426_68">
<rect width="34.6358" height="31.7495" fill="#FFF" transform="translate(0.570312 0.792969)"/>
</clipPath>
</defs>
</svg>
