<svg width="25" height="21" viewBox="0 0 25 21" fill="#FFF" xmlns="http://www.w3.org/2000/svg">
<g id="Link &#226;&#134;&#146; SVG" clip-path="url(#clip0_3426_384)">
<path id="Vector" d="M24.8271 0.539606C24.8071 0.448215 24.7633 0.363746 24.7 0.29475C24.6368 0.225753 24.5565 0.174677 24.4672 0.146694C24.142 0.0822923 23.8055 0.106151 23.4926 0.21579C23.4926 0.21579 1.80618 8.01113 0.567632 8.8743C0.301565 9.05992 0.211845 9.16821 0.1675 9.29505C-0.0470027 9.91381 0.620226 10.1799 0.620226 10.1799L6.20969 12.0011C6.30419 12.0181 6.40138 12.0124 6.49329 11.9846C7.76381 11.1812 19.281 3.90566 19.9502 3.66125C20.0534 3.63031 20.1328 3.66125 20.1122 3.73859C19.8461 4.67189 9.89337 13.5129 9.83871 13.5665C9.81208 13.5884 9.79135 13.6165 9.77837 13.6484C9.76541 13.6803 9.76062 13.7148 9.76446 13.7491L9.24264 19.2065C9.24264 19.2065 9.02401 20.905 10.7225 19.2065C11.927 18.001 13.083 17.0027 13.6606 16.517C15.5828 17.8442 17.6505 19.3117 18.5426 20.08C18.6926 20.2252 18.8704 20.3388 19.0653 20.4137C19.2602 20.4887 19.4683 20.5236 19.677 20.5162C19.9339 20.4849 20.1754 20.3761 20.3689 20.2042C20.5626 20.0324 20.6992 19.8056 20.7608 19.5541C20.7608 19.5541 24.7106 3.64887 24.8426 1.51828C24.856 1.31202 24.8735 1.1759 24.8756 1.03255C24.8821 0.866795 24.8657 0.700939 24.8271 0.539606Z" fill="#FFF"/>
</g>
<defs>
<clipPath id="clip0_3426_384">
<rect width="24.7504" height="20.6253" fill="#FFF" transform="translate(0.125 -0.00195312)"/>
</clipPath>
</defs>
</svg>
